<?xml version="1.0" encoding="UTF-8" standalone="no"?>
<!DOCTYPE svg PUBLIC "-//W3C//DTD SVG 1.1//EN" "http://www.w3.org/Graphics/SVG/1.1/DTD/svg11.dtd">
<svg version="1.1" xmlns="http://www.w3.org/2000/svg" xmlns:xlink="http://www.w3.org/1999/xlink" preserveAspectRatio="xMidYMid meet" viewBox="0 0 1000 800" width="1000" height="800"><defs><path d="M797.44 384.14C737.78 395.91 686.92 426.89 633.28 449.56C590.74 467.53 539.45 486.23 490.43 476.57C450 468.6 416.07 445.18 386.12 423.11C352.93 398.69 322.24 371.08 285.02 350.46C268.84 341.49 250.66 332.99 230.92 330.59C204.53 327.41 177.28 338.56 154.53 347.97C129.39 358.33 105.31 370.1 79.23 378.92C52.8 387.86 26.53 397.05 0.18 406.11C1.11 474.95 1.05 527.12 0 562.6L1000 574.98C1001.07 493.51 1002.27 445.12 1003.58 429.82C983.61 419.43 955.54 409.89 933.84 401.64C891.97 385.68 843.53 375.04 797.44 384.14Z" id="hv4uPBaGw"></path><path d="M0 803.21L1000 803.21L1000 558.45L0 562.6L0 803.21Z" id="a5Iixq0Iy"></path><path d="M686.54 113.1C685.18 95.15 670.23 81.02 651.94 81.02C642.75 81.02 634.4 84.57 628.2 90.4C621.43 85.36 613.06 82.4 603.96 82.4C584.89 82.4 568.89 95.53 564.49 113.25C562.16 112.75 559.76 112.47 557.28 112.47C539.15 112.47 524.48 127.17 524.48 145.27C524.48 162.83 538.3 177.19 555.67 178.04C555.67 178.04 555.67 178.05 555.67 178.07L682.92 178.07C682.92 178 682.92 177.95 682.92 177.95C699.66 176.47 712.82 162.39 712.82 145.27C712.82 129.37 701.52 116.12 686.54 113.1Z" id="g1CPTZJgR5"></path><path d="M453.61 153.33C452.26 135.38 437.31 121.25 419.02 121.25C409.82 121.25 401.48 124.81 395.28 130.63C388.51 125.59 380.14 122.63 371.04 122.63C351.96 122.63 335.97 135.76 331.56 153.49C329.23 152.98 326.84 152.7 324.36 152.7C306.22 152.7 291.55 167.4 291.55 185.5C291.55 203.07 305.37 217.42 322.75 218.27C322.75 218.27 322.75 218.28 322.75 218.3L449.99 218.3C449.99 218.23 449.99 218.19 449.99 218.18C466.77 216.7 479.9 202.63 479.9 185.5C479.9 169.6 468.6 156.35 453.61 153.33Z" id="cRKGjB0H"></path><path d="M340.1 210.15C338.74 192.21 323.79 178.07 305.5 178.07C296.31 178.07 287.96 181.63 281.76 187.45C274.99 182.42 266.62 179.46 257.52 179.46C238.45 179.46 222.45 192.58 218.05 210.31C215.72 209.8 213.32 209.52 210.84 209.52C192.7 209.52 178.03 224.22 178.03 242.32C178.03 259.89 191.85 274.24 209.23 275.09C209.23 275.1 209.23 275.11 209.23 275.12L336.48 275.12C336.48 275.05 336.48 275.01 336.48 275C353.22 273.52 366.38 259.48 366.38 242.32C366.38 226.42 355.08 213.17 340.1 210.15Z" id="a1coPO1AvA"></path><path d="M829.65 256.93C829.24 236.94 806.44 230.49 797.09 237.66C795.74 219.72 780.79 205.58 762.5 205.58C753.31 205.58 744.96 209.14 738.76 214.97C731.99 209.93 723.62 206.97 714.52 206.97C695.44 206.97 679.45 220.1 675.05 237.82C672.72 237.32 670.32 237.03 667.84 237.03C649.7 237.03 635.03 251.74 635.03 269.84C635.03 287.4 648.85 301.76 666.23 302.61C666.23 302.61 666.23 302.62 666.23 302.64L774.43 302.64L793.47 302.64C816.48 302.64 829.26 302.64 831.82 302.64C844.44 302.64 854.67 292.41 854.67 279.78C854.67 267.16 844.44 256.93 831.82 256.93C831.38 256.93 829.86 256.93 829.65 256.93Z" id="e1AytEzaJj"></path><path d="M677.19 614.61L350.23 614.61L350.23 412.95L513.71 296.69L677.19 412.95L677.19 614.61Z" id="b1tJx9mUtY"></path><path d="M510.12 315.1C512.26 313.56 515.16 313.56 517.3 315.1C533.05 326.31 659.07 415.91 674.83 427.11C675.86 427.87 677.12 428.24 678.41 428.24C679.45 428.24 687.76 428.24 688.8 428.24C694.82 428.24 697.3 420.53 692.42 417.04C674.91 404.39 534.84 303.17 517.33 290.52C515.16 288.94 512.2 288.94 510.06 290.55C492.74 303.2 354.2 404.42 336.88 417.07C332.04 420.6 334.55 428.28 340.54 428.28C341.38 428.28 348.13 428.28 348.97 428.28C350.3 428.28 351.55 427.87 352.59 427.11C384.1 404.71 494.37 326.31 510.12 315.1Z" id="c3PGOMgR7b"></path><path d="M513.71 361.25C495.21 361.25 480.21 376.25 480.21 394.75C480.21 413.25 495.21 428.24 513.71 428.24C532.21 428.24 547.2 413.25 547.2 394.75C547.2 376.25 532.21 361.25 513.71 361.25Z" id="b5fE8PkbJ"></path><path d="M513.71 366.92C498.34 366.92 485.88 379.38 485.88 394.75C485.88 410.12 498.34 422.58 513.71 422.58C529.08 422.58 541.54 410.12 541.54 394.75C541.54 379.38 529.08 366.92 513.71 366.92Z" id="aJA1yFSNs"></path><path d="M513.71 366.95C509.27 366.95 505.08 368.02 501.34 369.88C505.06 373.61 534.88 403.43 538.61 407.15C540.47 403.44 541.54 399.22 541.54 394.78C541.54 394.47 541.54 394.15 541.51 393.84C539.72 392.05 530.77 383.1 514.65 366.98C514.23 366.96 513.92 366.95 513.71 366.95Z" id="fLTVvJfuL"></path><path d="M486.48 389.21C489.76 392.49 516 418.73 519.28 422.01C524 421.07 528.28 418.9 531.81 415.9C529.2 413.29 516.12 400.21 492.59 376.68C489.14 381.89 487.11 386.06 486.48 389.21Z" id="b1NcvIkcSp"></path><path d="M509.59 363.87L517.83 363.87L517.83 425.7L509.59 425.7L509.59 363.87Z" id="b1u5BEMryN"></path><path d="M482.8 390.66L544.62 390.66L544.62 398.91L482.8 398.91L482.8 390.66Z" id="b350KUEWZs"></path><path d="M476.94 478.68L550.48 478.68L550.48 614.61L476.94 614.61L476.94 478.68Z" id="dMZbXvV3"></path><path d="M369.75 446.6L457.04 446.6L457.04 516.3L369.75 516.3L369.75 446.6Z" id="f5hp5lzxwQ"></path><path d="M376.55 452.04L450.28 452.04L450.28 510.91L376.55 510.91L376.55 452.04Z" id="aTcW0Z2e3"></path><path d="M376.52 452.04C376.52 458.16 376.52 461.56 376.52 462.24C392.73 478.46 408.94 494.67 425.19 510.91C426.86 510.91 435.21 510.91 450.24 510.91L450.24 510.5L391.82 452.04L376.52 452.04Z" id="a2f7X0sSk"></path><path d="M407.43 452.04C421.72 466.34 435.98 480.6 450.28 494.89C450.28 492.53 450.28 473.64 450.28 471.28C443.89 464.86 437.53 458.43 431.14 452.04C426.4 452.04 409.8 452.04 407.43 452.04Z" id="bDdmjDknf"></path><path d="M409.6 452.04L417.19 452.04L417.19 510.91L409.6 510.91L409.6 452.04Z" id="b4p0nmEKB"></path><path d="M451.45 477.65L451.45 485.24L375.39 485.24L375.39 477.65L451.45 477.65Z" id="g13EV8KTnr"></path><path d="M572.64 446.6L659.94 446.6L659.94 516.3L572.64 516.3L572.64 446.6Z" id="a9N47rQEU"></path><path d="M579.44 452.04L653.17 452.04L653.17 510.91L579.44 510.91L579.44 452.04Z" id="a2FVTgxsGz"></path><path d="M579.41 452.04C579.41 458.16 579.41 461.56 579.41 462.24C595.62 478.46 611.83 494.67 628.08 510.91C629.75 510.91 638.1 510.91 653.14 510.91L653.14 510.5L594.71 452.04L579.41 452.04Z" id="e6uwWMt4N"></path><path d="M610.32 452.04C624.61 466.34 638.87 480.6 653.17 494.89C653.17 492.53 653.17 473.64 653.17 471.28C646.78 464.86 640.39 458.43 634.03 452.04C629.29 452.04 612.69 452.04 610.32 452.04Z" id="a7LbVPlEY"></path><path d="M612.49 452.04L620.08 452.04L620.08 510.91L612.49 510.91L612.49 452.04Z" id="d4Mp2ApxjT"></path><path d="M654.33 477.66L654.33 485.25L578.27 485.25L578.27 477.66L654.33 477.66Z" id="cxCuhD4FP"></path><path d="M546.42 543.21C543.72 543.21 541.54 545.4 541.54 548.09C541.54 550.79 543.72 552.97 546.42 552.97C549.11 552.97 551.3 550.79 551.3 548.09C551.3 545.4 549.11 543.21 546.42 543.21Z" id="d30votQtx2"></path><path d="M908.47 513.8C912.33 513.8 915.47 516.62 915.47 520.08C915.47 528.59 915.47 596.71 915.47 605.22C915.47 608.68 912.33 611.5 908.47 611.5C908.47 611.5 908.47 611.5 908.47 611.5C904.62 611.5 901.48 608.68 901.48 605.22C901.48 596.71 901.48 528.59 901.48 520.08C901.45 516.62 904.59 513.8 908.47 513.8C908.47 513.8 908.47 513.8 908.47 513.8Z" id="b1rDOJmZZc"></path><path d="M908.47 546.4C932.59 546.4 952.12 525.14 952.12 498.94C952.12 473.97 912.52 405.54 908.78 399.07C908.64 398.85 908.34 398.85 908.2 399.07C904.4 405.54 864.83 473.97 864.83 498.94C864.83 525.16 884.36 546.4 908.47 546.4Z" id="c8hmcYCVI"></path><path d="M908.17 399.1C908.31 398.87 908.61 398.87 908.75 399.1C912.52 405.57 952.09 473.97 952.09 498.96C952.09 525.19 932.56 546.43 908.45 546.43C903.93 546.43 899.55 545.66 895.44 544.28C949.72 515.11 935.86 444.61 906.66 401.71C907.34 400.5 907.87 399.59 908.17 399.1Z" id="e2oV29lEMW"></path><path d="M827.13 496.18C831.53 496.18 835.12 499.77 835.12 504.18C835.12 515.03 835.12 601.87 835.12 612.72C835.12 617.13 831.53 620.72 827.13 620.72C827.13 620.72 827.13 620.72 827.13 620.72C822.72 620.72 819.13 617.13 819.13 612.72C819.13 601.87 819.13 515.03 819.13 504.18C819.1 499.77 822.69 496.18 827.13 496.18C827.13 496.18 827.13 496.18 827.13 496.18Z" id="e1azNADj6"></path><path d="M827.13 537.73C854.67 537.73 876.99 510.63 876.99 477.23C876.99 445.4 831.75 358.17 827.47 349.92C827.32 349.64 826.97 349.64 826.81 349.92C822.5 358.2 777.26 445.4 777.26 477.23C777.26 510.66 799.58 537.73 827.13 537.73Z" id="a37pICjh3M"></path><path d="M114.17 513.8C118.03 513.8 121.17 516.62 121.17 520.08C121.17 528.59 121.17 596.71 121.17 605.22C121.17 608.68 118.03 611.5 114.17 611.5C114.17 611.5 114.17 611.5 114.17 611.5C110.31 611.5 107.17 608.68 107.17 605.22C107.17 596.71 107.17 528.59 107.17 520.08C107.14 516.62 110.29 513.8 114.17 513.8C114.17 513.8 114.17 513.8 114.17 513.8Z" id="ccCxa5BsS"></path><path d="M114.17 546.4C138.28 546.4 157.82 525.14 157.82 498.94C157.82 473.97 118.22 405.54 114.47 399.07C114.34 398.85 114.03 398.85 113.9 399.07C110.09 405.54 70.52 473.97 70.52 498.94C70.52 525.16 90.06 546.4 114.17 546.4Z" id="aghJEbwL9"></path><path d="M113.87 399.1C114.01 398.87 114.31 398.87 114.45 399.1C118.22 405.57 157.79 473.97 157.79 498.96C157.79 525.19 138.25 546.43 114.14 546.43C109.62 546.43 105.24 545.66 101.14 544.28C155.42 515.11 141.56 444.61 112.35 401.71C113.04 400.5 113.57 399.59 113.87 399.1Z" id="d1Tt2fQKLG"></path><path d="M826.78 349.95C826.94 349.67 827.28 349.67 827.44 349.95C831.75 358.2 876.96 445.4 876.96 477.26C876.96 510.69 854.64 537.76 827.1 537.76C821.93 537.76 816.93 536.79 812.24 535.03C874.25 497.85 858.42 408 825.05 353.29C825.84 351.75 826.43 350.58 826.78 349.95Z" id="b31Az0HfLp"></path><path d="M197.43 492.4C201.83 492.4 205.42 495.99 205.42 500.4C205.42 511.25 205.42 598.09 205.42 608.94C205.42 613.35 201.83 616.94 197.43 616.94C197.43 616.94 197.43 616.94 197.43 616.94C193.02 616.94 189.43 613.35 189.43 608.94C189.43 598.09 189.43 511.25 189.43 500.4C189.4 495.99 192.99 492.4 197.43 492.4C197.43 492.4 197.43 492.4 197.43 492.4Z" id="aINpdYy2"></path><path d="M197.43 533.96C224.97 533.96 247.29 506.85 247.29 473.45C247.29 441.62 202.05 354.39 197.77 346.14C197.62 345.86 197.27 345.86 197.11 346.14C192.77 354.39 147.56 441.62 147.56 473.45C147.56 506.88 169.88 533.96 197.43 533.96Z" id="c11R6ZoK7"></path><path d="M197.08 346.18C197.24 345.89 197.58 345.89 197.74 346.18C202.05 354.42 247.26 441.62 247.26 473.48C247.26 506.91 224.94 533.99 197.4 533.99C192.23 533.99 187.23 533.01 182.54 531.25C244.55 494.07 228.72 404.19 195.35 349.51C196.14 347.97 196.73 346.81 197.08 346.18Z" id="a3GaUCssF"></path><path d="M748.11 469.2C753.59 469.2 758 473.64 758 479.09C758 492.5 758 599.84 758 613.25C758 618.73 753.56 623.14 748.11 623.14C748.11 623.14 748.11 623.14 748.11 623.14C742.63 623.14 738.23 618.7 738.23 613.25C738.23 599.84 738.23 492.5 738.23 479.09C738.23 473.61 742.67 469.2 748.11 469.2C748.11 469.2 748.11 469.2 748.11 469.2Z" id="c9KvSxkA8"></path><path d="M748.11 520.58C782.14 520.58 809.75 487.08 809.75 445.75C809.75 406.4 753.84 298.58 748.52 288.38C748.33 288.03 747.89 288.03 747.7 288.38C742.38 298.58 686.47 406.4 686.47 445.75C686.47 487.08 714.08 520.58 748.11 520.58Z" id="bm8O5Pxhs"></path><path d="M747.7 288.38C747.89 288.03 748.33 288.03 748.52 288.38C753.84 298.55 809.75 406.4 809.75 445.75C809.75 487.08 782.14 520.58 748.11 520.58C741.72 520.58 735.55 519.38 729.73 517.18C806.41 471.25 786.83 360.15 745.56 292.53C746.54 290.64 747.29 289.2 747.7 288.38Z" id="b6IH2Y7T3"></path><path d="M290.58 465.55C296.05 465.55 300.46 469.99 300.46 475.43C300.46 488.85 300.46 596.19 300.46 609.6C300.46 615.08 296.02 619.49 290.58 619.49C290.58 619.49 290.58 619.49 290.58 619.49C285.1 619.49 280.69 615.05 280.69 609.6C280.69 596.19 280.69 488.85 280.69 475.43C280.69 469.99 285.13 465.55 290.58 465.55C290.58 465.55 290.58 465.55 290.58 465.55Z" id="e2YQJZtRRq"></path><path d="M290.58 516.96C324.61 516.96 352.22 483.46 352.22 442.13C352.22 402.78 296.31 294.96 290.99 284.76C290.8 284.41 290.36 284.41 290.17 284.76C284.85 294.96 228.94 402.78 228.94 442.13C228.94 483.46 256.55 516.96 290.58 516.96Z" id="bIKaYH8Z3"></path><path d="M290.17 284.76C290.36 284.41 290.8 284.41 290.99 284.76C296.31 294.93 352.22 402.78 352.22 442.13C352.22 483.46 324.61 516.96 290.58 516.96C284.19 516.96 278.02 515.76 272.19 513.56C348.88 467.63 329.3 356.53 288.03 288.91C289 287.02 289.76 285.58 290.17 284.76Z" id="a6XKesWOqu"></path></defs><g><g><g><use xlink:href="#hv4uPBaGw" opacity="1" fill="#94a94c" fill-opacity="1"></use><g><use xlink:href="#hv4uPBaGw" opacity="1" fill-opacity="0" stroke="#000000" stroke-width="1" stroke-opacity="0"></use></g></g><g><use xlink:href="#a5Iixq0Iy" opacity="1" fill="#b8d15c" fill-opacity="1"></use><g><use xlink:href="#a5Iixq0Iy" opacity="1" fill-opacity="0" stroke="#000000" stroke-width="1" stroke-opacity="0"></use></g></g><g><g><use xlink:href="#g1CPTZJgR5" opacity="0.65" fill="#ffffff" fill-opacity="1"></use><g><use xlink:href="#g1CPTZJgR5" opacity="0.65" fill-opacity="0" stroke="#000000" stroke-width="1" stroke-opacity="0"></use></g></g><g><use xlink:href="#cRKGjB0H" opacity="0.59" fill="#ffffff" fill-opacity="1"></use><g><use xlink:href="#cRKGjB0H" opacity="0.59" fill-opacity="0" stroke="#000000" stroke-width="1" stroke-opacity="0"></use></g></g><g><use xlink:href="#a1coPO1AvA" opacity="1" fill="#ffffff" fill-opacity="1"></use><g><use xlink:href="#a1coPO1AvA" opacity="1" fill-opacity="0" stroke="#000000" stroke-width="1" stroke-opacity="0"></use></g></g><g><use xlink:href="#e1AytEzaJj" opacity="1" fill="#ffffff" fill-opacity="1"></use><g><use xlink:href="#e1AytEzaJj" opacity="1" fill-opacity="0" stroke="#000000" stroke-width="1" stroke-opacity="0"></use></g></g></g><g><use xlink:href="#b1tJx9mUtY" opacity="1" fill="#fffdef" fill-opacity="1"></use><g><use xlink:href="#b1tJx9mUtY" opacity="1" fill-opacity="0" stroke="#000000" stroke-width="1" stroke-opacity="0"></use></g></g><g><use xlink:href="#c3PGOMgR7b" opacity="1" fill="#df7c68" fill-opacity="1"></use><g><use xlink:href="#c3PGOMgR7b" opacity="1" fill-opacity="0" stroke="#000000" stroke-width="1" stroke-opacity="0"></use></g></g><g><use xlink:href="#b5fE8PkbJ" opacity="1" fill="#df7c68" fill-opacity="1"></use><g><use xlink:href="#b5fE8PkbJ" opacity="1" fill-opacity="0" stroke="#000000" stroke-width="1" stroke-opacity="0"></use></g></g><g><use xlink:href="#aJA1yFSNs" opacity="1" fill="#8bd2f6" fill-opacity="1"></use><g><use xlink:href="#aJA1yFSNs" opacity="1" fill-opacity="0" stroke="#000000" stroke-width="1" stroke-opacity="0"></use></g></g><g><use xlink:href="#fLTVvJfuL" opacity="1" fill="#d4edfc" fill-opacity="1"></use><g><use xlink:href="#fLTVvJfuL" opacity="1" fill-opacity="0" stroke="#000000" stroke-width="1" stroke-opacity="0"></use></g></g><g><use xlink:href="#b1NcvIkcSp" opacity="1" fill="#d4edfc" fill-opacity="1"></use><g><use xlink:href="#b1NcvIkcSp" opacity="1" fill-opacity="0" stroke="#000000" stroke-width="1" stroke-opacity="0"></use></g></g><g><use xlink:href="#b1u5BEMryN" opacity="1" fill="#df7c68" fill-opacity="1"></use><g><use xlink:href="#b1u5BEMryN" opacity="1" fill-opacity="0" stroke="#000000" stroke-width="1" stroke-opacity="0"></use></g></g><g><use xlink:href="#b350KUEWZs" opacity="1" fill="#df7c68" fill-opacity="1"></use><g><use xlink:href="#b350KUEWZs" opacity="1" fill-opacity="0" stroke="#000000" stroke-width="1" stroke-opacity="0"></use></g></g><g><use xlink:href="#dMZbXvV3" opacity="1" fill="#a77960" fill-opacity="1"></use><g><use xlink:href="#dMZbXvV3" opacity="1" fill-opacity="0" stroke="#000000" stroke-width="1" stroke-opacity="0"></use></g></g><g><use xlink:href="#f5hp5lzxwQ" opacity="1" fill="#df7c68" fill-opacity="1"></use><g><use xlink:href="#f5hp5lzxwQ" opacity="1" fill-opacity="0" stroke="#000000" stroke-width="1" stroke-opacity="0"></use></g></g><g><use xlink:href="#aTcW0Z2e3" opacity="1" fill="#8bd2f6" fill-opacity="1"></use><g><use xlink:href="#aTcW0Z2e3" opacity="1" fill-opacity="0" stroke="#000000" stroke-width="1" stroke-opacity="0"></use></g></g><g><use xlink:href="#a2f7X0sSk" opacity="1" fill="#d4edfc" fill-opacity="1"></use><g><use xlink:href="#a2f7X0sSk" opacity="1" fill-opacity="0" stroke="#000000" stroke-width="1" stroke-opacity="0"></use></g></g><g><use xlink:href="#bDdmjDknf" opacity="1" fill="#d4edfc" fill-opacity="1"></use><g><use xlink:href="#bDdmjDknf" opacity="1" fill-opacity="0" stroke="#000000" stroke-width="1" stroke-opacity="0"></use></g></g><g><use xlink:href="#b4p0nmEKB" opacity="1" fill="#df7c68" fill-opacity="1"></use><g><use xlink:href="#b4p0nmEKB" opacity="1" fill-opacity="0" stroke="#000000" stroke-width="1" stroke-opacity="0"></use></g></g><g><use xlink:href="#g13EV8KTnr" opacity="1" fill="#df7c68" fill-opacity="1"></use><g><use xlink:href="#g13EV8KTnr" opacity="1" fill-opacity="0" stroke="#000000" stroke-width="1" stroke-opacity="0"></use></g></g><g><use xlink:href="#a9N47rQEU" opacity="1" fill="#df7c68" fill-opacity="1"></use><g><use xlink:href="#a9N47rQEU" opacity="1" fill-opacity="0" stroke="#000000" stroke-width="1" stroke-opacity="0"></use></g></g><g><use xlink:href="#a2FVTgxsGz" opacity="1" fill="#8bd2f6" fill-opacity="1"></use><g><use xlink:href="#a2FVTgxsGz" opacity="1" fill-opacity="0" stroke="#000000" stroke-width="1" stroke-opacity="0"></use></g></g><g><use xlink:href="#e6uwWMt4N" opacity="1" fill="#d4edfc" fill-opacity="1"></use><g><use xlink:href="#e6uwWMt4N" opacity="1" fill-opacity="0" stroke="#000000" stroke-width="1" stroke-opacity="0"></use></g></g><g><use xlink:href="#a7LbVPlEY" opacity="1" fill="#d4edfc" fill-opacity="1"></use><g><use xlink:href="#a7LbVPlEY" opacity="1" fill-opacity="0" stroke="#000000" stroke-width="1" stroke-opacity="0"></use></g></g><g><use xlink:href="#d4Mp2ApxjT" opacity="1" fill="#df7c68" fill-opacity="1"></use><g><use xlink:href="#d4Mp2ApxjT" opacity="1" fill-opacity="0" stroke="#000000" stroke-width="1" stroke-opacity="0"></use></g></g><g><use xlink:href="#cxCuhD4FP" opacity="1" fill="#df7c68" fill-opacity="1"></use><g><use xlink:href="#cxCuhD4FP" opacity="1" fill-opacity="0" stroke="#000000" stroke-width="1" stroke-opacity="0"></use></g></g><g><use xlink:href="#d30votQtx2" opacity="1" fill="#fecc27" fill-opacity="1"></use><g><use xlink:href="#d30votQtx2" opacity="1" fill-opacity="0" stroke="#000000" stroke-width="1" stroke-opacity="0"></use></g></g><g><g><use xlink:href="#b1rDOJmZZc" opacity="1" fill="#97653e" fill-opacity="1"></use><g><use xlink:href="#b1rDOJmZZc" opacity="1" fill-opacity="0" stroke="#000000" stroke-width="1" stroke-opacity="0"></use></g></g><g><use xlink:href="#c8hmcYCVI" opacity="1" fill="#729549" fill-opacity="1"></use><g><use xlink:href="#c8hmcYCVI" opacity="1" fill-opacity="0" stroke="#000000" stroke-width="1" stroke-opacity="0"></use></g></g><g><use xlink:href="#e2oV29lEMW" opacity="1" fill="#b0c400" fill-opacity="1"></use><g><use xlink:href="#e2oV29lEMW" opacity="1" fill-opacity="0" stroke="#000000" stroke-width="1" stroke-opacity="0"></use></g></g></g><g><use xlink:href="#e1azNADj6" opacity="1" fill="#97653e" fill-opacity="1"></use><g><use xlink:href="#e1azNADj6" opacity="1" fill-opacity="0" stroke="#000000" stroke-width="1" stroke-opacity="0"></use></g></g><g><use xlink:href="#a37pICjh3M" opacity="1" fill="#729549" fill-opacity="1"></use><g><use xlink:href="#a37pICjh3M" opacity="1" fill-opacity="0" stroke="#000000" stroke-width="1" stroke-opacity="0"></use></g></g><g><g><use xlink:href="#ccCxa5BsS" opacity="1" fill="#97653e" fill-opacity="1"></use><g><use xlink:href="#ccCxa5BsS" opacity="1" fill-opacity="0" stroke="#000000" stroke-width="1" stroke-opacity="0"></use></g></g><g><use xlink:href="#aghJEbwL9" opacity="1" fill="#729549" fill-opacity="1"></use><g><use xlink:href="#aghJEbwL9" opacity="1" fill-opacity="0" stroke="#000000" stroke-width="1" stroke-opacity="0"></use></g></g><g><use xlink:href="#d1Tt2fQKLG" opacity="1" fill="#b0c400" fill-opacity="1"></use><g><use xlink:href="#d1Tt2fQKLG" opacity="1" fill-opacity="0" stroke="#000000" stroke-width="1" stroke-opacity="0"></use></g></g></g><g><use xlink:href="#b31Az0HfLp" opacity="1" fill="#b0c400" fill-opacity="1"></use><g><use xlink:href="#b31Az0HfLp" opacity="1" fill-opacity="0" stroke="#000000" stroke-width="1" stroke-opacity="0"></use></g></g><g><use xlink:href="#aINpdYy2" opacity="1" fill="#97653e" fill-opacity="1"></use><g><use xlink:href="#aINpdYy2" opacity="1" fill-opacity="0" stroke="#000000" stroke-width="1" stroke-opacity="0"></use></g></g><g><use xlink:href="#c11R6ZoK7" opacity="1" fill="#729549" fill-opacity="1"></use><g><use xlink:href="#c11R6ZoK7" opacity="1" fill-opacity="0" stroke="#000000" stroke-width="1" stroke-opacity="0"></use></g></g><g><use xlink:href="#a3GaUCssF" opacity="1" fill="#b0c400" fill-opacity="1"></use><g><use xlink:href="#a3GaUCssF" opacity="1" fill-opacity="0" stroke="#000000" stroke-width="1" stroke-opacity="0"></use></g></g><g><use xlink:href="#c9KvSxkA8" opacity="1" fill="#97653e" fill-opacity="1"></use><g><use xlink:href="#c9KvSxkA8" opacity="1" fill-opacity="0" stroke="#000000" stroke-width="1" stroke-opacity="0"></use></g></g><g><use xlink:href="#bm8O5Pxhs" opacity="1" fill="#729549" fill-opacity="1"></use><g><use xlink:href="#bm8O5Pxhs" opacity="1" fill-opacity="0" stroke="#000000" stroke-width="1" stroke-opacity="0"></use></g></g><g><use xlink:href="#b6IH2Y7T3" opacity="1" fill="#b0c400" fill-opacity="1"></use><g><use xlink:href="#b6IH2Y7T3" opacity="1" fill-opacity="0" stroke="#000000" stroke-width="1" stroke-opacity="0"></use></g></g><g><use xlink:href="#e2YQJZtRRq" opacity="1" fill="#97653e" fill-opacity="1"></use><g><use xlink:href="#e2YQJZtRRq" opacity="1" fill-opacity="0" stroke="#000000" stroke-width="1" stroke-opacity="0"></use></g></g><g><use xlink:href="#bIKaYH8Z3" opacity="1" fill="#729549" fill-opacity="1"></use><g><use xlink:href="#bIKaYH8Z3" opacity="1" fill-opacity="0" stroke="#000000" stroke-width="1" stroke-opacity="0"></use></g></g><g><use xlink:href="#a6XKesWOqu" opacity="1" fill="#b0c400" fill-opacity="1"></use><g><use xlink:href="#a6XKesWOqu" opacity="1" fill-opacity="0" stroke="#000000" stroke-width="1" stroke-opacity="0"></use></g></g></g></g></svg>